M48
; DRILL file {KiCad (5.1.8)-1} date 01/22/21 20:57:08
; FORMAT={-:-/ absolute / inch / decimal}
; #@! TF.CreationDate,2021-01-22T20:57:08-05:00
; #@! TF.GenerationSoftware,Kicad,Pcbnew,(5.1.8)-1
; #@! TF.FileFunction,Plated,1,2,PTH
FMAT,2
INCH
T1C0.0276
T2C0.0315
T3C0.0394
T4C0.0400
%
G90
G05
T1
X5.625Y-4.7
X5.725Y-4.7
X5.375Y-4.7
X5.475Y-4.7
T2
X4.1031Y-3.25
X4.3Y-3.25
X3.6Y-3.525
X3.6Y-4.025
X3.7Y-3.525
X3.7Y-4.025
X3.8Y-3.525
X3.8Y-4.025
X3.9Y-3.525
X3.9Y-4.025
X4.0Y-3.525
X4.0Y-4.025
X4.1Y-3.525
X4.1Y-4.025
X4.2Y-3.525
X4.2Y-4.025
X4.3Y-3.525
X4.3Y-4.025
X5.25Y-4.325
X5.25Y-4.5219
X4.5Y-3.525
X4.5Y-4.025
X4.6Y-3.525
X4.6Y-4.025
X4.7Y-3.525
X4.7Y-4.025
X4.8Y-3.525
X4.8Y-4.025
X4.9Y-3.525
X4.9Y-4.025
X5.0Y-3.525
X5.0Y-4.025
X5.1Y-3.525
X5.1Y-4.025
X5.2Y-3.525
X5.2Y-4.025
T3
X5.725Y-4.225
X5.725Y-4.325
X5.725Y-4.425
X5.725Y-4.525
X3.8Y-4.2
X3.9Y-4.2
X4.0Y-4.2
X4.1Y-4.2
X5.9Y-4.575
X5.9Y-4.675
X3.625Y-4.45
X3.625Y-4.55
X3.625Y-4.65
X3.625Y-4.75
X5.625Y-3.725
X5.625Y-3.825
X5.625Y-3.925
X3.625Y-3.25
X3.725Y-3.25
X3.825Y-3.25
X3.925Y-3.25
X5.525Y-4.225
X5.525Y-4.325
X5.525Y-4.425
X6.475Y-4.425
X6.575Y-4.425
X6.675Y-4.425
X6.775Y-4.425
X4.7Y-4.2
X4.8Y-4.2
X4.9Y-4.2
X5.0Y-4.2
T4
X4.218Y-3.0
X4.318Y-3.0
X4.418Y-3.0
X4.518Y-3.0
X4.578Y-4.9
X4.618Y-3.0
X4.678Y-4.9
X4.718Y-3.0
X4.778Y-4.9
X4.818Y-3.0
X4.878Y-4.9
X4.918Y-3.0
X4.978Y-4.9
X5.018Y-3.0
X5.078Y-4.9
X5.118Y-3.0
X5.178Y-4.9
X5.278Y-3.0
X5.278Y-4.9
X5.378Y-3.0
X5.478Y-3.0
X5.478Y-4.9
X5.578Y-3.0
X5.578Y-4.9
X5.678Y-3.0
X5.678Y-4.9
X5.778Y-3.0
X5.778Y-4.9
X5.878Y-3.0
X5.878Y-4.9
X5.978Y-3.0
X5.978Y-4.9
X5.983Y-3.8
X5.983Y-3.9
X5.983Y-4.0
X6.078Y-4.9
X6.083Y-3.8
X6.083Y-3.9
X6.083Y-4.0
X6.178Y-3.0
X6.178Y-4.9
X6.278Y-3.0
X6.378Y-3.0
X6.378Y-4.9
X6.478Y-3.0
X6.478Y-4.9
X6.578Y-3.0
X6.578Y-4.9
X6.678Y-3.0
X6.678Y-4.9
X6.778Y-3.0
X6.778Y-4.9
X6.878Y-3.0
X6.878Y-4.9
X6.978Y-4.9
X7.078Y-4.9
X7.178Y-3.0
X7.178Y-3.1
X7.178Y-3.2
X7.178Y-3.3
X7.178Y-3.4
X7.178Y-3.5
X7.178Y-3.6
X7.178Y-3.7
X7.178Y-3.8
X7.178Y-3.9
X7.178Y-4.0
X7.178Y-4.1
X7.178Y-4.2
X7.178Y-4.3
X7.178Y-4.4
X7.178Y-4.5
X7.178Y-4.6
X7.178Y-4.7
X7.278Y-3.0
X7.278Y-3.1
X7.278Y-3.2
X7.278Y-3.3
X7.278Y-3.4
X7.278Y-3.5
X7.278Y-3.6
X7.278Y-3.7
X7.278Y-3.8
X7.278Y-3.9
X7.278Y-4.0
X7.278Y-4.1
X7.278Y-4.2
X7.278Y-4.3
X7.278Y-4.4
X7.278Y-4.5
X7.278Y-4.6
X7.278Y-4.7
T3
G00X5.6228Y-3.3961
M15
G01X5.6228Y-3.4551
M16
G05
G00X5.7606Y-3.15
M15
G01X5.8394Y-3.15
M16
G05
G00X5.7744Y-3.3862
M15
G01X5.8256Y-3.3862
M16
G05
G00X5.9772Y-3.3961
M15
G01X5.9772Y-3.4551
M16
G05
T0
M30
